<?xml version="1.0" standalone="no"?>
<!DOCTYPE svg PUBLIC "-//W3C//DTD SVG 20010904//EN"
 "http://www.w3.org/TR/2001/REC-SVG-20010904/DTD/svg10.dtd">
<svg version="1.0" xmlns="http://www.w3.org/2000/svg"
 width="687.000000pt" height="687.000000pt" viewBox="0 0 687.000000 687.000000"
 preserveAspectRatio="xMidYMid meet">

<g transform="translate(0.000000,687.000000) scale(0.100000,-0.100000)"
fill="#000000" stroke="none">
<path d="M0 3435 l0 -3435 3435 0 3435 0 0 3435 0 3435 -3435 0 -3435 0 0
-3435z m3629 1966 c29 -29 60 -121 101 -306 60 -266 82 -314 172 -383 190
-145 294 -261 361 -399 33 -70 40 -95 44 -166 l6 -84 111 -12 c300 -33 588
-128 771 -255 33 -23 65 -45 72 -49 12 -7 202 223 381 461 73 96 88 122 73
122 -36 0 -345 -82 -477 -126 -170 -57 -222 -57 -259 0 -35 53 4 79 220 149
225 73 665 177 751 177 45 0 81 -15 94 -39 8 -17 6 -30 -14 -68 -31 -61 -233
-331 -435 -582 -86 -106 -164 -204 -174 -217 -18 -24 -18 -25 11 -72 60 -98
77 -164 77 -302 0 -69 -4 -143 -8 -164 l-8 -39 33 22 c86 58 214 98 267 84 23
-6 35 -34 26 -62 -4 -13 -19 -20 -56 -25 -101 -14 -158 -43 -239 -125 -128
-129 -169 -239 -170 -457 -1 -348 160 -660 475 -920 47 -39 49 -42 38 -67 -9
-19 -20 -27 -37 -27 -47 0 -205 145 -309 283 -160 215 -242 428 -254 669 l-6
117 -92 -167 c-151 -274 -346 -588 -432 -696 -33 -40 -81 -84 -116 -107 -51
-33 -68 -39 -114 -39 -91 0 -89 -3 -97 177 -11 251 -52 575 -115 906 -8 43 -6
51 13 74 23 27 99 42 125 24 32 -21 138 -787 141 -1014 0 -10 55 53 112 128
107 141 207 314 447 772 201 383 235 474 235 633 0 77 -5 109 -27 169 -14 40
-27 75 -29 77 -2 2 -24 -4 -48 -12 -59 -21 -128 -13 -152 15 -21 27 -16 41 36
110 l40 53 -44 39 c-105 89 -274 170 -462 219 -130 34 -374 68 -387 54 -5 -5
-12 -24 -16 -41 l-7 -33 157 0 c130 0 157 -3 161 -15 4 -8 1 -22 -6 -30 -10
-12 -43 -15 -170 -15 l-158 0 -41 -86 c-22 -47 -50 -99 -62 -116 -12 -16 -20
-31 -18 -33 2 -1 96 -32 209 -67 193 -60 205 -65 205 -88 0 -15 -7 -26 -17
-28 -9 -2 -112 27 -228 63 -117 37 -213 65 -214 63 -1 -2 -36 -39 -79 -84
l-78 -81 181 -118 c226 -147 232 -153 189 -175 -18 -10 -46 6 -218 120 l-198
131 -96 -65 c-117 -79 -224 -131 -382 -186 -279 -96 -557 -148 -812 -151 -69
-1 -123 -6 -123 -12 0 -31 262 -1013 274 -1024 1 -2 19 50 40 116 39 125 88
335 126 541 13 69 28 131 33 138 20 26 168 3 196 -31 5 -7 37 -131 71 -277 77
-333 131 -540 141 -540 9 0 88 188 118 281 12 36 32 108 45 160 l23 94 49 3
c54 4 120 -12 145 -34 15 -13 15 -21 2 -82 -41 -195 -124 -405 -233 -587 -74
-123 -81 -128 -155 -123 -108 9 -118 19 -165 165 -23 69 -60 200 -84 291 l-42
164 -33 -123 c-36 -136 -84 -272 -142 -397 -45 -97 -62 -108 -147 -92 -92 17
-96 22 -151 198 -65 203 -159 543 -251 902 l-72 286 -86 15 c-94 17 -93 18
-14 -40 25 -18 26 -21 11 -38 -9 -10 -172 -217 -363 -460 -191 -244 -351 -445
-355 -447 -4 -3 -105 178 -225 402 -120 224 -220 409 -223 412 -2 2 -21 -15
-41 -38 l-37 -42 -53 51 c-29 28 -52 55 -50 60 4 11 210 240 213 237 2 -2 98
-181 215 -398 116 -217 215 -398 218 -402 6 -6 549 672 574 717 5 9 -11 19
-55 35 -61 22 -187 84 -237 115 -24 16 -31 14 -213 -74 -104 -50 -197 -91
-207 -91 -20 0 -34 26 -24 42 4 6 85 49 181 95 l174 84 -73 72 c-40 40 -84 89
-98 109 -14 21 -32 38 -41 38 -9 0 -110 -21 -224 -46 -114 -25 -213 -43 -221
-40 -16 6 -19 42 -4 51 5 3 100 26 211 50 111 25 204 46 206 48 2 2 -9 30 -23
63 -14 32 -34 91 -44 129 l-18 70 -196 5 c-202 5 -223 10 -209 47 7 17 2 17
213 18 l185 0 6 110 c8 127 36 227 99 344 l39 74 -21 151 c-16 112 -21 208
-22 373 -1 215 0 223 21 244 14 14 38 23 70 26 46 5 58 0 203 -77 85 -45 208
-117 272 -160 l117 -77 128 43 c222 74 458 117 721 130 l127 7 60 80 c100 132
312 335 375 360 32 12 81 6 99 -12z"/>
<path d="M3430 5183 c-40 -43 -106 -123 -147 -178 -42 -55 -85 -106 -96 -114
-15 -11 -70 -17 -199 -22 -331 -14 -561 -59 -798 -154 -62 -25 -122 -45 -135
-45 -13 0 -43 15 -67 33 -100 77 -361 237 -386 237 -11 0 7 -282 28 -446 l22
-170 -31 -49 c-40 -62 -86 -183 -100 -259 -6 -33 -11 -99 -11 -148 l0 -88 549
0 c473 0 550 -2 561 -15 7 -8 10 -22 6 -30 -5 -13 -74 -15 -556 -15 -302 0
-550 -4 -550 -8 0 -26 67 -199 85 -220 1 -1 240 49 531 113 290 63 539 115
551 115 28 0 41 -26 22 -45 -8 -7 -249 -64 -536 -127 -288 -62 -523 -117 -523
-121 0 -16 76 -99 127 -138 l52 -41 179 87 180 87 -14 34 c-15 36 -11 59 13
68 26 10 49 -2 64 -35 l14 -30 183 90 c194 97 232 108 232 67 0 -21 -22 -35
-187 -116 l-188 -92 30 -24 c134 -111 413 -156 697 -113 l66 11 -4 31 c-3 18
-18 125 -34 239 -32 238 -14 201 -194 392 -65 70 -117 128 -115 130 2 2 127 7
278 11 232 6 273 5 266 -6 -5 -8 -48 -75 -96 -150 l-87 -137 33 -236 c17 -130
35 -239 38 -243 11 -11 134 47 205 97 37 26 87 68 111 94 l43 48 -83 55 c-93
61 -110 78 -102 99 10 25 42 15 127 -42 47 -31 89 -53 95 -49 6 3 18 19 26 35
l15 29 -148 46 c-81 25 -154 48 -164 51 -23 7 -31 35 -15 52 12 12 22 11 65
-2 50 -14 51 -14 39 4 -25 40 -6 43 363 48 245 3 353 8 355 16 19 64 19 66
-33 66 -50 0 -72 12 -72 41 0 26 48 59 86 59 40 0 42 13 19 105 -39 153 -130
278 -279 383 -99 70 -153 117 -171 151 -7 14 -23 76 -35 136 -39 199 -105 425
-124 425 -2 0 -37 -35 -76 -77z m-70 -725 c97 -66 89 -213 -14 -262 -101 -48
-216 23 -216 133 0 119 134 194 230 129z m-510 -7 c19 -10 46 -33 58 -52 20
-28 23 -43 20 -92 -4 -51 -9 -63 -40 -94 -31 -31 -45 -37 -91 -41 -124 -10
-202 100 -148 212 37 76 128 106 201 67z m-86 -623 c15 -24 -3 -52 -37 -56
-33 -4 -53 28 -37 59 14 25 58 23 74 -3z m137 -28 c23 -13 25 -52 4 -70 -8 -7
-25 -10 -39 -6 -33 8 -43 42 -20 67 20 22 28 23 55 9z m-67 -142 c16 -26 -4
-53 -40 -53 -23 0 -30 5 -32 23 -2 13 -1 30 2 38 8 20 56 14 70 -8z"/>
<path d="M3730 3810 c-14 -4 -20 -8 -14 -9 18 -2 24 -27 15 -59 l-9 -29 134
-41 c73 -23 137 -42 142 -42 9 0 92 160 92 179 0 13 -320 14 -360 1z"/>
<path d="M3530 3775 c58 -19 107 -31 111 -27 3 4 10 19 17 35 l12 27 -123 -1
-122 -1 105 -33z"/>
<path d="M3672 3604 c-13 -26 -22 -47 -20 -49 2 -1 44 -30 95 -63 l92 -62 60
67 c34 36 61 69 61 72 0 6 -237 81 -256 81 -5 0 -20 -21 -32 -46z"/>
<path d="M3557 3445 c-100 -114 -283 -210 -479 -252 -102 -22 -390 -24 -483
-5 -150 33 -241 72 -327 144 l-47 39 -167 -84 -166 -83 109 -51 c115 -55 219
-91 229 -80 4 3 2 24 -3 46 -13 51 -3 61 62 60 101 -1 133 -24 155 -115 l10
-41 67 -6 c324 -31 692 37 988 182 100 49 285 169 285 185 0 6 -169 116 -178
116 -4 0 -28 -25 -55 -55z"/>
</g>
</svg>
