<?xml version="1.0" standalone="no"?>
<!DOCTYPE svg PUBLIC "-//W3C//DTD SVG 20010904//EN"
 "http://www.w3.org/TR/2001/REC-SVG-20010904/DTD/svg10.dtd">
<svg version="1.0" xmlns="http://www.w3.org/2000/svg"
 width="671.000000pt" height="671.000000pt" viewBox="0 0 671.000000 671.000000"
 preserveAspectRatio="xMidYMid meet">

<g transform="translate(0.000000,671.000000) scale(0.100000,-0.100000)"
fill="#000000" stroke="none">
<path d="M3398 5311 c-92 -58 -263 -230 -361 -362 l-42 -56 -127 -7 c-263 -13
-499 -56 -722 -131 l-130 -43 -60 43 c-91 64 -182 117 -343 202 -132 69 -148
75 -190 70 -28 -3 -54 -13 -67 -26 -20 -21 -21 -30 -20 -234 1 -152 7 -257 22
-371 l21 -158 -49 -102 c-60 -123 -90 -241 -90 -355 l0 -84 -187 7 c-104 3
-194 2 -201 -3 -8 -4 -12 -17 -10 -27 3 -18 18 -19 202 -24 l198 -5 19 -75
c11 -41 32 -102 48 -136 l29 -62 -197 -42 c-234 -51 -241 -54 -241 -80 0 -29
22 -27 259 25 l206 46 29 -38 c16 -21 64 -72 106 -114 l77 -76 -178 -86 c-148
-71 -179 -89 -179 -107 0 -11 6 -23 13 -26 7 -2 100 38 205 89 l193 95 77 -44
c71 -41 218 -104 242 -104 5 0 10 -4 10 -9 0 -10 -568 -735 -578 -738 -4 -1
-103 178 -221 397 -118 220 -217 400 -220 400 -6 0 -103 -104 -182 -194 l-34
-39 55 -49 55 -49 38 42 c20 23 39 40 40 38 2 -2 102 -187 222 -411 120 -225
221 -408 224 -407 3 0 169 208 368 461 l362 462 -45 34 c-24 19 -43 37 -40 39
4 4 158 -25 164 -31 2 -2 36 -134 77 -294 114 -444 218 -815 283 -1002 17 -50
23 -57 63 -72 60 -23 131 -23 152 0 39 43 152 342 193 508 9 38 20 73 24 77 4
4 24 -60 45 -142 21 -83 59 -212 84 -288 43 -130 48 -139 81 -155 19 -9 58
-20 87 -24 49 -6 53 -5 81 25 103 113 278 520 307 714 l7 47 -46 21 c-33 14
-62 19 -102 17 l-56 -3 -28 -110 c-43 -167 -150 -449 -165 -434 -7 8 -90 335
-145 574 -28 121 -53 227 -55 236 -8 23 -73 51 -137 56 -70 7 -67 13 -103
-182 -51 -273 -148 -637 -164 -619 -11 12 -116 391 -205 740 l-74 291 152 6
c439 18 926 162 1189 351 l75 53 197 -129 c109 -71 205 -128 214 -126 9 2 16
12 16 23 0 15 -47 51 -182 140 -100 66 -185 124 -189 128 -9 9 145 167 163
167 6 0 105 -29 218 -64 114 -36 214 -62 222 -59 8 3 13 15 11 26 -3 17 -35
30 -207 84 -113 35 -207 66 -210 69 -3 3 3 17 13 32 9 15 36 66 59 113 l42 86
104 7 c57 3 132 6 166 6 62 0 78 9 68 38 -4 9 -44 12 -159 12 -146 0 -154 1
-154 19 0 11 4 31 9 44 9 22 14 24 58 20 200 -18 396 -63 539 -122 101 -43
233 -123 278 -170 l29 -30 -41 -54 c-49 -63 -54 -98 -17 -115 36 -17 110 -15
145 3 29 15 30 15 50 -25 75 -148 60 -345 -45 -567 -68 -143 -361 -696 -434
-817 -89 -149 -253 -376 -272 -376 -3 0 -9 57 -12 128 -12 238 -101 855 -128
889 -18 21 -95 12 -122 -16 l-21 -21 37 -222 c58 -350 87 -620 87 -809 0 -94
9 -104 90 -104 116 1 211 95 397 394 116 186 226 374 311 531 l52 95 0 -70 c1
-239 91 -502 243 -709 71 -97 252 -277 296 -295 25 -11 34 -11 46 -1 29 24 18
56 -33 93 -76 56 -212 204 -275 298 -146 221 -212 471 -187 712 14 136 22 167
65 237 88 145 209 237 327 247 51 5 61 9 71 31 10 21 8 27 -12 43 -18 15 -32
17 -69 12 -67 -8 -143 -39 -203 -79 -39 -27 -50 -31 -45 -17 47 151 26 347
-52 483 l-38 65 184 229 c210 261 415 533 444 589 24 48 20 78 -12 94 -38 19
-85 16 -247 -18 -312 -64 -683 -171 -761 -219 -28 -17 -33 -25 -30 -52 3 -28
9 -35 51 -52 l47 -20 158 52 c216 70 487 140 499 128 6 -6 -145 -206 -319
-424 -93 -115 -143 -170 -151 -165 -7 5 -45 30 -85 57 -191 125 -472 217 -762
247 l-115 12 -1 71 c-3 135 -65 256 -208 404 -50 52 -123 118 -162 148 -126
94 -144 128 -200 384 -41 185 -80 306 -105 331 -28 28 -78 24 -131 -10z m41
-188 c27 -75 64 -219 91 -358 12 -60 28 -121 35 -135 19 -36 87 -97 198 -179
138 -101 213 -207 252 -356 8 -32 15 -72 15 -87 0 -25 -3 -28 -34 -28 -42 0
-88 -34 -84 -64 3 -18 11 -21 61 -24 l58 -3 -7 -37 c-3 -20 -9 -40 -13 -43 -3
-4 -162 -9 -354 -11 -354 -4 -377 -7 -364 -42 6 -14 47 -16 352 -16 264 0 345
-3 345 -12 0 -21 -81 -178 -92 -178 -6 0 -70 19 -144 42 l-134 41 6 37 c10 63
-51 85 -70 25 -6 -17 -11 -32 -12 -33 -2 -2 -78 19 -169 48 -168 52 -191 54
-183 14 2 -14 41 -29 163 -67 88 -27 161 -51 163 -52 5 -5 -27 -63 -39 -70 -6
-4 -48 18 -95 49 -92 61 -124 70 -124 34 0 -18 21 -37 90 -82 73 -48 88 -61
81 -75 -14 -24 -98 -102 -154 -140 -52 -35 -168 -91 -190 -91 -10 0 -22 64
-46 243 l-33 242 92 144 c50 79 89 145 86 148 -3 3 -124 2 -270 -2 l-266 -7
43 -49 c23 -26 86 -95 141 -153 l98 -106 34 -237 c18 -131 33 -241 34 -245 0
-7 -105 -24 -205 -33 -84 -7 -267 9 -350 30 -77 20 -171 64 -214 100 l-33 29
192 92 c153 75 191 97 188 111 -2 10 -12 19 -24 21 -11 2 -103 -38 -205 -89
-164 -81 -185 -89 -194 -74 -27 47 -41 58 -64 50 -19 -6 -22 -12 -19 -38 3
-18 8 -39 12 -48 5 -12 -30 -33 -173 -103 -107 -52 -186 -84 -193 -80 -55 32
-188 167 -176 179 4 4 1050 235 1064 235 2 0 4 11 4 25 0 19 -5 25 -22 25 -13
0 -261 -52 -551 -115 -291 -63 -532 -113 -537 -110 -13 8 -69 148 -76 192 l-6
41 543 -6 c497 -4 545 -3 558 12 11 13 11 19 1 31 -11 13 -89 15 -564 17
l-551 3 1 95 c1 127 26 230 89 356 l51 104 -18 137 c-20 158 -43 461 -35 469
11 11 264 -139 377 -225 68 -51 93 -52 202 -7 237 97 443 139 773 157 110 6
212 15 227 21 16 6 56 48 98 105 91 121 218 263 235 263 7 0 22 -26 34 -57z
m292 -1583 c71 -23 129 -45 129 -49 0 -5 -28 -38 -62 -74 l-63 -66 -97 64 -96
64 26 51 c15 27 29 50 31 50 2 0 62 -18 132 -40z m-129 -167 c48 -32 86 -62
85 -68 -7 -23 -170 -130 -282 -185 -193 -96 -406 -156 -635 -180 -106 -11
-299 -12 -374 -2 l-49 7 -16 60 c-13 47 -22 62 -43 73 -35 16 -118 27 -151 18
-25 -6 -25 -6 -12 -56 12 -47 12 -50 -5 -50 -49 0 -330 119 -330 139 0 4 76
43 168 87 l168 81 48 -44 c109 -98 257 -143 498 -150 254 -8 398 20 582 115
69 35 107 64 170 127 44 45 83 83 85 84 3 0 44 -25 93 -56z"/>
<path d="M3102 4380 c-91 -55 -96 -172 -12 -244 25 -21 42 -26 83 -26 91 0
150 58 150 146 0 111 -126 182 -221 124z"/>
<path d="M2625 4376 c-41 -18 -83 -69 -91 -111 -15 -83 62 -175 148 -175 46 0
106 40 127 84 26 53 26 86 0 137 -33 65 -116 95 -184 65z"/>
<path d="M2590 3751 c-7 -15 -5 -24 8 -41 32 -40 85 -4 62 41 -14 25 -56 25
-70 0z"/>
<path d="M2750 3716 c-6 -8 -10 -25 -8 -38 4 -30 46 -38 65 -12 17 23 16 29
-3 48 -19 20 -38 20 -54 2z"/>
<path d="M2667 3593 c-12 -12 -7 -50 8 -63 8 -6 23 -9 34 -5 25 8 36 41 21 60
-13 15 -51 20 -63 8z"/>
</g>
</svg>
